<?xml version="1.0" standalone="no"?>
<!DOCTYPE svg PUBLIC "-//W3C//DTD SVG 20010904//EN"
 "http://www.w3.org/TR/2001/REC-SVG-20010904/DTD/svg10.dtd">
<svg version="1.0" xmlns="http://www.w3.org/2000/svg"
 width="614.000000pt" height="432.000000pt" viewBox="0 0 614.000000 432.000000"
 preserveAspectRatio="xMidYMid meet">
<metadata>
Created by potrace 1.16, written by Peter Selinger 2001-2019
</metadata>
<g transform="translate(0.000000,432.000000) scale(0.100000,-0.100000)"
fill="#000000" stroke="none">
<path d="M2740 4160 c-66 -16 -284 -101 -377 -147 -125 -63 -230 -145 -270
-213 -57 -94 -49 -113 112 -257 60 -54 189 -175 286 -270 107 -104 190 -177
213 -187 36 -15 40 -15 138 22 60 22 106 45 114 57 11 16 14 115 14 474 1 433
1 455 -18 480 -10 14 -30 32 -43 38 -27 14 -116 15 -169 3z m170 -48 l28 -29
-5 -449 c-2 -247 -7 -452 -11 -455 -21 -19 -179 -69 -201 -64 -14 4 -115 95
-225 203 -111 108 -232 224 -271 257 -119 103 -125 110 -125 148 0 97 171 225
446 334 139 55 232 81 292 82 35 1 49 -5 72 -27z"/>
<path d="M3090 4124 c-19 -8 -43 -26 -54 -41 -18 -24 -19 -48 -18 -438 1 -227
6 -423 11 -436 13 -36 38 -54 136 -97 86 -38 91 -39 120 -24 17 8 98 81 180
162 83 81 225 216 317 299 107 97 170 162 177 181 29 85 -40 164 -222 250
-155 73 -293 125 -388 144 -93 20 -213 20 -259 0z m230 -30 c112 -21 230 -64
389 -141 194 -95 254 -162 206 -230 -8 -12 -77 -77 -153 -144 -75 -68 -189
-173 -252 -235 -209 -203 -244 -235 -254 -231 -106 41 -171 75 -183 94 -14 21
-16 81 -17 433 -1 300 2 414 11 426 16 22 79 43 129 44 23 0 79 -7 124 -16z"/>
<path d="M3874 3564 c-73 -76 -130 -142 -128 -146 3 -5 2 -7 -3 -6 -16 5 -331
-316 -338 -345 -4 -15 -4 -42 -1 -60 9 -47 72 -189 89 -198 10 -6 755 -13 923
-9 11 0 34 14 51 30 60 59 52 152 -31 365 -82 208 -149 329 -235 418 -54 56
-100 82 -156 86 -38 3 -41 0 -171 -135z m236 81 c70 -37 171 -177 246 -345 74
-165 106 -264 112 -347 4 -68 3 -73 -23 -99 l-27 -27 -166 6 c-91 4 -296 7
-456 7 l-291 0 -37 96 c-34 90 -36 99 -23 128 7 17 90 108 185 201 94 94 217
219 273 279 56 59 111 112 122 116 22 9 46 5 85 -15z"/>
<path d="M1958 3649 c-82 -22 -158 -137 -265 -403 -101 -252 -111 -428 -28
-506 23 -22 24 -22 452 -23 491 -1 462 -6 508 91 40 84 64 155 57 169 -4 6
-109 116 -233 245 -125 128 -258 268 -296 311 -96 108 -137 132 -195 116z m83
-52 c14 -12 86 -87 160 -167 74 -80 205 -217 292 -305 86 -88 157 -163 157
-166 0 -23 -75 -177 -93 -191 -19 -15 -64 -16 -435 -16 -407 1 -414 1 -438 22
-36 31 -45 100 -29 210 17 114 38 179 105 331 70 156 110 224 160 268 47 43
83 47 121 14z"/>
<path d="M4940 2828 c-40 -72 -88 -147 -106 -167 -19 -19 -34 -42 -35 -51 0
-8 -3 -10 -5 -4 -3 7 27 75 65 153 38 77 66 143 62 146 -12 7 -19 -4 -105
-148 -41 -71 -85 -140 -96 -154 -25 -32 -27 -100 -4 -160 15 -38 20 -43 48
-43 39 0 103 32 125 62 9 12 32 63 52 113 20 49 53 128 72 174 20 47 33 89 30
94 -8 14 -17 1 -87 -140 -37 -73 -71 -135 -77 -139 -8 -4 -8 0 0 14 6 11 11
28 11 37 0 9 12 42 26 73 75 163 114 253 114 262 0 31 -26 -4 -90 -122z"/>
<path d="M1085 2890 c-4 -6 -3 -16 3 -23 15 -19 127 -277 145 -332 15 -47 15
-49 -1 -26 -9 13 -45 78 -80 145 -69 131 -69 132 -78 123 -4 -4 27 -86 67
-184 88 -213 119 -253 194 -253 44 0 47 2 65 43 30 66 23 129 -19 179 -15 17
-82 127 -128 211 -20 37 -43 67 -50 67 -7 0 -13 -1 -13 -3 0 -2 32 -68 70
-146 39 -79 69 -146 66 -148 -2 -3 -12 9 -20 26 -9 16 -22 34 -29 38 -7 4 -50
72 -96 151 -46 78 -84 142 -86 142 -2 0 -7 -5 -10 -10z"/>
<path d="M5340 2683 c-97 -128 -97 -128 -152 -183 -27 -26 -48 -43 -48 -38 0
6 37 65 83 131 101 147 101 147 88 147 -5 0 -46 -44 -90 -97 -45 -54 -98 -118
-118 -142 -55 -64 -62 -80 -63 -136 -1 -40 -3 -46 -10 -27 -12 28 -29 28 -56
-1 -39 -42 -50 -90 -34 -154 13 -49 19 -58 44 -65 65 -17 146 25 182 94 14 27
13 27 -21 34 -19 3 -49 1 -66 -5 -18 -6 -34 -11 -35 -11 -2 0 -4 19 -3 43 1
40 1 41 11 15 9 -25 14 -28 57 -28 72 0 118 38 177 147 27 48 70 121 96 162
45 69 58 101 41 101 -5 -1 -33 -37 -63 -80 -89 -130 -134 -189 -138 -185 -3 2
3 16 12 29 9 14 16 31 16 37 0 7 41 74 90 150 85 129 101 159 82 159 -4 0 -41
-44 -82 -97z"/>
<path d="M3517 2734 c-21 -11 -41 -42 -73 -109 -24 -52 -44 -103 -44 -115 0
-14 73 -95 213 -238 118 -119 255 -262 306 -317 107 -115 133 -135 181 -135
79 0 159 94 247 294 82 184 118 303 129 421 8 87 -6 136 -49 183 l-31 32 -425
0 c-364 -1 -430 -3 -454 -16z m876 -23 c4 -1 16 -16 27 -33 44 -72 14 -272
-70 -468 -129 -302 -218 -400 -303 -333 -14 10 -68 66 -120 124 -52 57 -185
195 -295 307 l-200 203 24 56 c46 102 65 134 87 142 16 6 804 8 850 2z"/>
<path d="M696 2711 c-6 -9 15 -46 110 -193 41 -63 98 -178 89 -178 -3 0 -15
15 -27 34 -108 161 -178 249 -178 221 0 -11 94 -170 102 -173 4 -2 8 -7 8 -12
0 -21 85 -152 116 -179 29 -26 43 -31 88 -31 45 0 55 3 64 23 9 20 11 17 11
-21 1 -39 -1 -42 -18 -32 -25 13 -108 13 -116 0 -9 -14 86 -107 118 -115 42
-11 95 3 109 28 6 12 12 50 12 84 1 57 -1 64 -34 98 -38 39 -51 40 -61 4 -5
-18 -7 -12 -8 23 -1 62 -15 96 -54 134 -18 18 -42 45 -55 60 -89 114 -126 162
-138 179 -9 12 -17 16 -23 10 -5 -6 26 -61 80 -143 49 -73 89 -134 89 -137 0
-13 -100 97 -169 186 -44 57 -87 112 -95 122 -8 11 -16 14 -20 8z"/>
<path d="M1649 2663 c-108 -45 -87 -219 67 -542 97 -203 212 -335 299 -342 66
-5 76 0 158 89 45 48 172 178 283 289 111 111 209 218 218 237 23 48 19 64
-49 213 -21 44 -29 53 -57 57 -18 3 -226 7 -462 8 -315 2 -436 0 -457 -9z
m617 -33 l313 0 25 -56 c36 -79 50 -128 42 -157 -3 -13 -103 -122 -224 -243
-119 -121 -248 -252 -285 -291 -58 -62 -73 -73 -101 -73 -88 0 -218 160 -317
390 -63 147 -99 264 -101 328 -3 103 18 114 201 107 74 -3 275 -5 447 -5z"/>
<path d="M4635 2452 c-29 -43 -31 -80 -9 -146 20 -57 47 -71 104 -56 50 13 83
41 109 90 12 22 21 43 21 45 0 11 -73 4 -105 -9 -35 -15 -35 -15 -35 10 0 33
-27 91 -46 98 -8 3 -23 -9 -39 -32z"/>
<path d="M1416 2390 c-9 -22 -16 -52 -16 -65 0 -29 -5 -30 -40 -10 -14 8 -42
14 -63 15 -35 0 -38 -2 -32 -22 26 -85 138 -156 191 -120 14 9 39 59 48 95 8
35 -10 106 -30 114 -7 3 -14 11 -14 19 0 29 -29 12 -44 -26z"/>
<path d="M2803 2387 c-12 -7 -93 -82 -181 -167 -154 -151 -217 -209 -390 -360
-120 -105 -137 -152 -83 -227 35 -49 92 -86 242 -157 322 -154 583 -189 655
-88 19 26 20 45 18 432 -1 223 -3 413 -3 422 -2 28 -50 77 -99 99 -115 51
-137 57 -159 46z m113 -66 c60 -26 93 -46 101 -62 9 -18 12 -122 12 -392 0
-202 3 -372 6 -377 3 -5 3 -26 -1 -46 -10 -55 -49 -74 -154 -74 -101 0 -229
31 -365 90 -269 115 -355 173 -355 241 0 45 6 53 128 160 116 102 232 212 427
401 55 54 103 98 106 98 3 0 46 -17 95 -39z"/>
<path d="M3275 2374 c-22 -7 -47 -18 -55 -23 -9 -4 -30 -12 -47 -15 -17 -4
-36 -13 -42 -20 -8 -9 -12 -164 -15 -476 l-4 -463 33 -36 34 -36 83 1 c91 1
126 11 324 91 231 95 402 220 426 314 13 51 7 86 -19 115 -10 11 -85 81 -168
156 -82 75 -204 190 -270 257 -153 155 -184 169 -280 135z m118 -33 c15 -10
101 -89 190 -177 197 -193 278 -269 335 -313 92 -71 91 -124 -2 -216 -95 -95
-252 -178 -493 -261 -132 -45 -213 -48 -251 -11 l-25 26 4 183 c2 101 3 303 1
451 -3 251 -3 267 15 273 10 4 50 19 88 34 84 34 101 35 138 11z"/>
<path d="M5600 2279 c-63 -55 -136 -111 -162 -124 -25 -13 -48 -30 -51 -37 -3
-8 -6 -9 -6 -2 -1 7 48 58 107 115 59 57 111 109 115 116 17 28 -27 2 -99 -57
-43 -36 -107 -87 -143 -113 -76 -56 -91 -75 -107 -137 -7 -25 -13 -35 -13 -23
-1 33 -18 37 -55 14 -39 -25 -66 -82 -66 -141 0 -65 50 -100 125 -86 35 7 115
61 122 83 6 16 -72 36 -110 29 -24 -5 -28 -3 -23 10 3 9 6 28 7 42 l1 27 11
-27 c12 -31 25 -37 82 -40 38 -1 119 31 127 50 1 5 47 56 100 113 113 122 142
158 134 166 -6 6 -41 -23 -142 -116 -33 -31 -73 -67 -89 -81 l-28 -25 31 43
c17 24 81 95 141 159 61 64 111 122 111 129 0 8 -1 14 -2 14 -2 -1 -55 -46
-118 -101z"/>
<path d="M4567 2300 c-15 -17 -28 -41 -29 -53 -3 -53 3 -95 18 -129 16 -36 20
-38 62 -38 59 0 114 32 142 82 19 33 20 42 9 49 -20 12 -41 11 -87 -5 -44 -16
-51 -11 -52 37 -1 12 -9 37 -19 55 l-18 34 -26 -32z"/>
<path d="M400 2302 c0 -4 38 -45 85 -91 47 -46 85 -87 85 -92 0 -5 7 -9 15 -9
8 0 15 -7 15 -15 0 -7 6 -18 13 -22 7 -4 20 -20 29 -34 9 -14 25 -34 35 -44
10 -10 13 -16 7 -14 -6 2 -62 52 -124 112 -63 59 -117 107 -122 107 -18 0 -6
-23 32 -60 22 -22 40 -44 40 -50 0 -5 7 -10 16 -10 8 0 13 -4 10 -9 -4 -5 -3
-11 2 -13 4 -1 25 -24 46 -50 21 -26 42 -45 47 -42 5 3 9 -1 9 -8 0 -24 78
-87 115 -94 37 -7 82 1 102 18 24 20 16 107 -14 154 -16 24 -32 44 -36 44 -12
0 -70 43 -85 63 -7 9 -17 17 -22 17 -5 0 -24 15 -42 33 -41 40 -123 107 -132
107 -20 0 7 -33 112 -135 111 -109 114 -113 62 -83 -30 18 -71 47 -90 64 -176
158 -210 183 -210 156z"/>
<path d="M1501 2234 c-6 -15 -14 -46 -18 -69 -5 -42 -6 -42 -32 -29 -30 16
-111 19 -111 4 0 -20 44 -77 75 -99 22 -14 47 -21 82 -21 48 0 50 1 66 38 33
78 30 136 -11 169 -11 9 -11 12 -2 7 13 -7 13 -5 1 9 -19 24 -36 21 -50 -9z"/>
<path d="M4882 2195 c-12 -9 -29 -29 -37 -45 -26 -50 -15 -161 18 -182 20 -13
96 -9 127 7 34 18 91 85 83 98 -3 5 -36 7 -74 5 l-69 -5 0 51 c0 29 -6 60 -13
69 -11 16 -14 16 -35 2z"/>
<path d="M4460 2150 c-12 -16 -24 -45 -27 -63 -6 -42 13 -113 38 -138 32 -32
122 -21 160 19 35 38 52 73 41 84 -10 10 -78 7 -119 -7 -21 -7 -23 -4 -23 24
0 34 -28 111 -40 111 -5 0 -18 -13 -30 -30z"/>
<path d="M1199 2123 c-6 -16 -11 -49 -12 -74 -2 -45 -3 -46 -25 -38 -28 11
-79 11 -107 0 -17 -7 -15 -12 26 -55 38 -41 52 -49 91 -53 72 -8 93 1 106 45
23 77 12 135 -34 177 -15 14 -29 25 -31 25 -2 0 -8 -12 -14 -27z"/>
<path d="M1613 2098 c-24 -52 -30 -74 -27 -100 3 -32 -1 -33 -36 -13 -28 16
-106 20 -114 6 -9 -13 36 -73 73 -98 23 -16 48 -23 80 -23 57 0 66 6 86 53 26
62 18 130 -22 176 -22 26 -27 26 -40 -1z"/>
<path d="M4741 2045 c-31 -35 -36 -57 -31 -125 4 -56 17 -79 51 -88 l32 -8
-46 -11 -47 -10 0 46 c-1 25 -6 58 -13 73 -11 26 -13 26 -32 10 -41 -34 -55
-65 -55 -122 0 -60 0 -61 -87 -177 -37 -50 -51 -77 -46 -87 6 -11 18 -5 54 27
117 107 141 125 159 120 34 -9 88 17 132 65 34 38 39 47 25 50 -25 5 -21 22 7
22 23 0 116 73 116 90 0 26 -109 32 -137 8 -10 -8 -13 -1 -13 33 0 51 -17 119
-29 119 -5 0 -23 -16 -40 -35z"/>
<path d="M4371 2003 c-30 -37 -36 -69 -24 -125 9 -48 9 -50 -48 -155 -37 -68
-56 -111 -51 -120 9 -15 28 4 117 114 36 46 57 63 74 63 41 0 109 47 131 90
11 22 20 42 20 46 0 7 -97 0 -125 -10 -18 -6 -21 -3 -23 24 -3 40 -28 100 -41
100 -5 0 -19 -12 -30 -27z"/>
<path d="M1321 1988 c-6 -17 -11 -53 -11 -80 0 -45 -1 -48 -19 -38 -25 13
-101 13 -121 0 -12 -8 -9 -16 22 -47 21 -20 57 -45 80 -55 32 -12 37 -17 20
-17 -20 -1 -21 -4 -12 -22 32 -59 95 -99 156 -99 37 0 44 -5 200 -142 18 -16
22 -17 27 -5 3 9 -24 53 -66 108 -50 65 -72 103 -73 124 -1 16 -2 45 -3 63 -1
22 -12 44 -35 70 -44 47 -59 36 -64 -52 l-4 -64 -40 16 -39 15 30 13 c24 10
31 21 38 56 15 74 -10 153 -56 178 -16 8 -21 5 -30 -22z"/>
<path d="M883 1975 c-3 -9 -3 -40 -1 -70 l5 -55 -41 0 c-96 0 -109 -24 -40
-73 51 -36 107 -44 157 -24 36 15 37 18 37 66 0 27 -5 62 -11 78 -15 40 -58
83 -77 76 -10 -4 -13 -2 -8 5 4 7 2 12 -4 12 -6 0 -13 -7 -17 -15z"/>
<path d="M1699 1943 c-6 -15 -14 -47 -16 -70 -3 -24 -7 -43 -8 -43 -2 0 -16 7
-31 15 -37 19 -114 20 -114 2 0 -20 68 -95 101 -112 15 -8 39 -15 53 -15 19 0
42 -20 96 -84 77 -93 85 -100 100 -91 7 4 -1 27 -21 62 -88 157 -88 157 -82
217 7 64 -8 108 -43 131 -23 15 -25 15 -35 -12z"/>
<path d="M5041 1891 c-39 -36 -51 -69 -51 -136 0 -50 2 -53 34 -69 19 -9 48
-16 65 -16 37 0 98 29 125 59 19 21 19 22 0 36 -11 8 -41 15 -70 15 l-51 0 10
44 c11 50 3 96 -17 96 -8 0 -28 -13 -45 -29z"/>
<path d="M1022 1787 l5 -73 -32 4 c-17 2 -49 -4 -71 -13 l-39 -17 39 -34 c21
-18 54 -37 73 -40 44 -8 103 1 121 20 20 19 18 115 -2 154 -13 25 -74 72 -93
72 -3 0 -4 -33 -1 -73z"/>
<path d="M4912 1803 c-53 -26 -85 -118 -66 -190 9 -34 94 -59 145 -44 38 12
99 55 99 72 0 13 -79 31 -117 27 -27 -3 -32 -1 -27 11 11 27 17 128 7 134 -5
3 -23 -1 -41 -10z"/>
<path d="M1166 1744 c-10 -25 -7 -59 9 -103 l14 -41 -37 6 c-40 6 -112 -16
-112 -35 0 -20 80 -63 127 -69 42 -5 44 -6 23 -14 l-25 -10 40 -33 c44 -38
112 -57 154 -45 22 6 45 -3 130 -51 57 -33 107 -59 112 -59 15 0 10 20 -11 42
-11 12 -20 19 -20 17 0 -3 -34 26 -75 64 -54 50 -75 77 -75 95 0 40 -31 92
-69 117 -20 12 -39 21 -43 18 -11 -6 -10 -87 1 -116 9 -24 9 -25 -40 -25 l-50
0 30 19 c29 17 31 23 31 77 0 68 -25 114 -76 144 -29 17 -32 17 -38 2z"/>
<path d="M4780 1692 c-39 -21 -70 -72 -70 -115 0 -28 -45 -76 -165 -180 -20
-17 -27 -29 -20 -36 7 -7 42 8 112 49 87 51 106 58 136 53 55 -8 104 5 142 39
19 16 35 34 35 39 0 12 -79 31 -112 27 -27 -4 -28 -4 -22 31 11 59 11 65 5 89
-6 22 -6 22 -41 4z"/>
<path d="M2373 1170 c-204 -43 -345 -140 -460 -316 -84 -129 -109 -197 -158
-422 -5 -20 -11 -22 -68 -22 -34 0 -67 -4 -73 -8 -14 -9 -34 -121 -23 -128 5
-3 219 -5 476 -5 258 0 628 -2 823 -5 l356 -5 21 52 22 51 28 -21 c99 -77 150
-93 226 -72 36 10 54 10 104 -3 85 -22 207 -21 284 4 62 19 63 19 120 0 32
-11 82 -20 111 -20 54 0 154 22 169 37 5 5 21 63 35 128 14 66 32 130 40 142
15 25 44 29 74 13 17 -9 19 -22 18 -113 0 -60 6 -120 14 -147 l14 -45 143 -3
c113 -2 146 0 155 11 8 11 33 13 109 9 93 -4 97 -5 97 -27 0 -49 -8 -55 -74
-55 -50 0 -63 4 -74 20 -17 27 -48 25 -78 -5 l-25 -25 23 -43 23 -42 167 -3
c182 -3 170 -7 182 58 12 70 103 504 112 533 5 16 -8 17 -178 17 l-183 0 -44
-67 c-31 -47 -49 -91 -65 -153 l-21 -87 -67 0 -68 0 0 106 c0 86 -4 112 -19
137 -36 59 -117 79 -201 49 -52 -18 -50 -18 -50 0 0 12 -15 15 -73 15 l-73 0
-33 -137 -33 -138 -59 3 c-69 4 -65 -9 -45 155 7 59 10 110 7 112 -2 3 -35 5
-72 5 l-68 0 -10 -37 c-50 -195 -63 -238 -79 -249 -22 -17 -53 -17 -76 -1 -18
13 -18 19 -1 138 9 68 17 128 18 134 1 5 -26 11 -59 13 l-62 4 -32 -103 c-17
-56 -42 -125 -55 -154 l-23 -53 -46 9 c-114 21 -130 54 -68 146 20 31 42 63
47 72 6 9 12 18 15 21 9 8 40 59 40 65 0 3 -33 5 -72 5 l-72 0 -39 -43 c-33
-36 -38 -39 -33 -17 19 83 47 232 44 235 -1 2 -30 5 -63 6 l-60 3 -17 -50 c-9
-27 -43 -138 -75 -246 l-58 -198 -94 0 c-92 0 -93 0 -88 22 2 13 21 86 42 163
59 226 76 297 72 302 -3 2 -36 6 -75 7 l-70 4 -35 -112 c-19 -61 -54 -172 -78
-247 l-42 -136 -44 0 c-24 -1 -45 2 -48 6 -2 4 7 48 19 97 13 49 36 141 50
204 15 63 31 130 36 148 11 41 4 44 -80 40 l-62 -3 -82 -245 -82 -245 -68 -3
c-61 -3 -67 -1 -62 15 10 35 66 250 66 257 0 3 -30 6 -68 6 l-67 0 -47 -137
-46 -138 -102 -3 -103 -3 7 43 c11 65 53 184 96 273 76 154 176 248 295 280
90 24 256 19 368 -11 48 -13 92 -24 97 -24 9 0 70 95 70 109 0 12 -103 57
-175 76 -69 19 -271 28 -332 15z m2711 -609 c36 -39 10 -140 -37 -149 -29 -6
-57 34 -57 83 0 72 54 110 94 66z"/>
<path d="M1360 849 c-30 -46 -33 -60 -34 -125 l-1 -74 -37 0 c-34 0 -38 3 -48
38 -14 45 -26 61 -66 90 -33 23 -144 56 -169 50 -10 -2 7 -34 53 -103 82 -122
88 -156 29 -186 -38 -20 -77 -80 -77 -119 0 -17 -6 -20 -42 -20 l-43 0 -1 68
c0 70 -18 116 -67 176 l-24 29 -36 -48 c-41 -54 -51 -92 -45 -170 4 -52 3 -55
-18 -55 -40 0 -56 12 -76 59 -23 55 -41 76 -82 96 -35 18 -146 48 -152 42 -3
-2 12 -26 33 -53 103 -132 114 -152 120 -224 l6 -68 256 -1 256 -2 1 59 c2 64
18 103 59 145 l28 27 233 0 233 0 21 73 c24 79 66 160 115 222 50 62 51 66 13
58 -56 -10 -153 -59 -176 -87 -12 -16 -27 -43 -34 -62 -11 -32 -15 -34 -59
-34 -44 0 -46 1 -41 25 9 48 -9 114 -46 169 -20 31 -39 56 -42 56 -4 0 -22
-23 -40 -51z"/>
<path d="M5381 736 c-28 -15 -39 -38 -40 -78 -1 -34 23 -58 59 -58 16 0 32 -4
35 -10 8 -13 -37 -23 -85 -18 -38 3 -40 2 -40 -24 l0 -28 95 0 95 0 20 33 c37
60 19 97 -49 97 -35 0 -47 13 -26 30 10 8 32 11 60 8 46 -6 55 1 55 43 0 17
-8 19 -77 19 -46 -1 -88 -6 -102 -14z"/>
<path d="M250 216 l0 -123 50 -6 c28 -3 57 -4 64 -1 21 8 45 64 40 93 -6 37
-51 74 -80 67 -23 -6 -24 -4 -24 44 0 47 -2 50 -25 50 l-25 0 0 -124z"/>
<path d="M5747 333 c-3 -4 -2 -61 0 -125 6 -114 7 -118 28 -118 19 0 23 5 21
29 -1 17 2 27 8 24 5 -4 7 1 3 10 -11 30 7 18 36 -23 22 -31 35 -40 57 -40 44
0 44 14 1 53 -22 20 -37 38 -34 41 3 3 -2 8 -11 12 -28 11 -18 34 34 83 28 26
47 50 44 54 -17 17 -57 4 -93 -29 l-40 -35 -3 33 c-2 25 -8 34 -25 36 -11 2
-23 0 -26 -5z"/>
<path d="M40 210 l0 -120 25 0 c20 0 25 6 31 34 l6 34 30 -34 c24 -27 38 -34
65 -34 30 0 34 2 23 15 -7 8 -17 12 -23 8 -5 -3 -7 -2 -4 4 3 5 -11 29 -32 53
l-37 43 53 53 c29 30 53 55 53 57 0 1 -17 2 -37 1 -28 -1 -43 -9 -65 -33 -34
-38 -42 -39 -36 -6 3 14 1 25 -4 25 -5 0 -6 5 -3 10 4 6 -5 10 -19 10 l-26 0
0 -120z"/>
<path d="M6033 225 l-20 -37 -13 31 c-10 26 -18 31 -47 31 -34 0 -35 -1 -21
-22 8 -13 24 -39 36 -60 l23 -36 -31 -52 c-16 -28 -30 -53 -30 -55 0 -3 13 -5
29 -5 25 0 34 8 61 56 17 31 32 65 33 75 1 10 7 21 15 24 8 3 11 12 8 20 -3 8
-1 15 4 15 5 0 14 10 21 21 8 15 8 19 0 15 -6 -4 -11 -1 -11 6 0 9 -3 9 -10
-2 -8 -13 -11 -13 -19 -1 -7 11 -14 5 -28 -24z"/>
</g>
</svg>
