<?xml version="1.0" standalone="no"?>
<!DOCTYPE svg PUBLIC "-//W3C//DTD SVG 20010904//EN"
 "http://www.w3.org/TR/2001/REC-SVG-20010904/DTD/svg10.dtd">
<svg version="1.0" xmlns="http://www.w3.org/2000/svg"
 width="614.000000pt" height="432.000000pt" viewBox="0 0 614.000000 432.000000"
 preserveAspectRatio="xMidYMid meet">

<g transform="translate(0.000000,432.000000) scale(0.100000,-0.100000)"
fill="#000000" stroke="none">
<path d="M2740 4160 c-66 -16 -284 -101 -377 -147 -125 -63 -230 -145 -270
-213 -57 -94 -49 -113 112 -257 60 -54 189 -175 286 -270 107 -104 190 -177
213 -187 36 -15 40 -15 138 22 60 22 106 45 114 57 11 16 14 115 14 474 1 433
1 455 -18 480 -10 14 -30 32 -43 38 -27 14 -116 15 -169 3z m170 -48 l28 -29
-5 -449 c-2 -247 -7 -452 -11 -455 -21 -19 -179 -69 -201 -64 -14 4 -115 95
-225 203 -111 108 -232 224 -271 257 -119 103 -125 110 -125 148 0 97 171 225
446 334 139 55 232 81 292 82 35 1 49 -5 72 -27z"
fill ="red"/>
<path d="M2784 4035 c-9 -23 14 -45 26 -25 5 8 8 19 7 24 -6 17 -27 18 -33 1z"/>
<path d="M2856 4022 c-10 -16 6 -51 20 -45 19 7 18 53 0 53 -8 0 -17 -4 -20
-8z"/>
<path d="M2593 3984 c-3 -8 2 -23 11 -32 15 -15 16 -14 16 16 0 33 -16 43 -27
16z"/>
<path d="M2647 3993 c-8 -17 -1 -38 14 -41 16 -3 33 31 21 42 -8 9 -30 7 -35
-1z"/>
<path d="M2492 3968 c-14 -14 -16 -58 -3 -58 9 0 51 52 51 64 0 11 -36 6 -48
-6z"/>
<path d="M2492 3870 c-11 -18 -10 -25 8 -50 30 -42 44 -38 36 8 -3 20 -6 43
-6 50 0 19 -24 14 -38 -8z"/>
<path d="M2384 3859 c-8 -14 31 -53 45 -45 17 11 13 34 -8 46 -25 13 -28 13
-37 -1z"/>
<path d="M2248 3836 c-8 -20 -9 -29 0 -38 16 -16 44 9 40 35 -5 31 -26 32 -40
3z"/>
<path d="M2153 3744 c-7 -18 12 -34 40 -34 23 0 22 27 -2 40 -26 13 -31 13
-38 -6z"/>
<path d="M2786 3384 c-20 -20 -18 -69 4 -69 18 0 37 62 23 76 -7 7 -16 5 -27
-7z"/>
<path d="M2701 3356 c-14 -16 -4 -46 15 -46 8 0 14 10 14 24 0 30 -14 41 -29
22z"/>
<path d="M2827 3310 c-16 -20 -16 -22 5 -50 12 -17 26 -30 31 -30 6 0 5 73 -2
98 -3 8 -19 -1 -34 -18z"/>
<path d="M2650 3270 c0 -41 14 -52 38 -28 19 19 14 44 -13 56 -24 11 -25 11
-25 -28z"/>
<path d="M2729 3199 c-14 -28 0 -42 35 -33 41 10 30 54 -14 54 -5 0 -14 -9
-21 -21z"/>
<path d="M3090 4124 c-19 -8 -43 -26 -54 -41 -18 -24 -19 -48 -18 -438 1 -227
6 -423 11 -436 13 -36 38 -54 136 -97 86 -38 91 -39 120 -24 17 8 98 81 180
162 83 81 225 216 317 299 107 97 170 162 177 181 29 85 -40 164 -222 250
-155 73 -293 125 -388 144 -93 20 -213 20 -259 0z m230 -30 c112 -21 230 -64
389 -141 194 -95 254 -162 206 -230 -8 -12 -77 -77 -153 -144 -75 -68 -189
-173 -252 -235 -209 -203 -244 -235 -254 -231 -106 41 -171 75 -183 94 -14 21
-16 81 -17 433 -1 300 2 414 11 426 16 22 79 43 129 44 23 0 79 -7 124 -16z" fill="red"/>
<path d="M3258 4052 c-18 -3 -25 -37 -10 -45 13 -8 52 12 52 27 0 16 -18 24
-42 18z"/>
<path d="M3117 4044 c-7 -7 13 -54 24 -54 14 0 20 20 14 40 -6 19 -25 26 -38
14z"/>
<path d="M3360 3948 c0 -30 15 -52 29 -44 6 4 11 20 11 37 0 22 -5 29 -20 29
-14 0 -20 -7 -20 -22z"/>
<path d="M3513 3963 c-15 -3 -23 -12 -23 -24 0 -18 4 -20 33 -14 17 4 36 9 40
12 9 5 -11 34 -22 32 -3 -1 -16 -4 -28 -6z"/>
<path d="M3593 3895 c-3 -9 -3 -18 0 -22 10 -10 37 6 37 22 0 20 -29 20 -37 0z"/>
<path d="M3427 3858 c-3 -24 -4 -44 -2 -47 7 -7 65 60 65 75 0 9 -11 14 -29
14 -26 0 -29 -4 -34 -42z"/>
<path d="M3637 3859 c-21 -12 -14 -29 13 -29 15 0 30 18 30 36 0 7 -25 4 -43
-7z"/>
<path d="M3766 3793 c-10 -25 9 -37 28 -18 9 9 16 21 16 26 0 16 -38 10 -44
-8z"/>
<path d="M3811 3737 c-17 -17 -13 -37 9 -37 11 0 20 2 20 4 0 2 3 11 6 19 7
18 -20 29 -35 14z"/>
<path d="M3128 3375 c-25 -22 -26 -24 -9 -39 31 -28 51 -14 51 34 0 29 -13 30
-42 5z" />
<path d="M3203 3375 c-3 -9 -2 -19 1 -23 8 -8 38 10 44 26 6 18 -38 14 -45 -3z"/>
<path d="M3277 3344 c-29 -16 -31 -21 -18 -42 7 -12 14 -11 40 2 32 17 41 40
18 49 -7 3 -25 -2 -40 -9z"/>
<path d="M3116 3261 c-19 -7 -19 -8 2 -29 36 -36 67 -27 55 16 -5 22 -23 26
-57 13z"/>
<path d="M3254 3243 c-3 -16 -7 -34 -10 -40 -7 -26 24 -12 50 21 33 44 33 46
-4 46 -24 0 -31 -5 -36 -27z"/>
<path d="M3874 3564 c-73 -76 -130 -142 -128 -146 3 -5 2 -7 -3 -6 -16 5 -331
-316 -338 -345 -4 -15 -4 -42 -1 -60 9 -47 72 -189 89 -198 10 -6 755 -13 923
-9 11 0 34 14 51 30 60 59 52 152 -31 365 -82 208 -149 329 -235 418 -54 56
-100 82 -156 86 -38 3 -41 0 -171 -135z m236 81 c70 -37 171 -177 246 -345 74
-165 106 -264 112 -347 4 -68 3 -73 -23 -99 l-27 -27 -166 6 c-91 4 -296 7
-456 7 l-291 0 -37 96 c-34 90 -36 99 -23 128 7 17 90 108 185 201 94 94 217
219 273 279 56 59 111 112 122 116 22 9 46 5 85 -15z"/>
<path d="M4039 3589 c-9 -17 -8 -23 2 -30 21 -13 25 -11 37 15 18 39 -18 53
-39 15z"/>
<path d="M4127 3516 c-7 -19 12 -36 40 -36 28 0 31 25 4 40 -26 14 -38 13 -44
-4z"/>
<path d="M4162 3378 c-16 -16 -15 -48 2 -48 20 0 39 27 32 45 -7 18 -18 19
-34 3z"/>
<path d="M4152 3267 c-44 -30 -40 -39 15 -34 52 4 62 15 35 40 -17 15 -20 15
-50 -6z"/>
<path d="M4252 3281 c-11 -6 -7 -13 16 -30 17 -11 35 -21 41 -21 19 0 12 28
-11 44 -26 18 -28 19 -46 7z"/>
<path d="M4285 3169 c-4 -6 -2 -15 5 -19 17 -10 42 -1 37 14 -5 16 -34 19 -42
5z"/>
<path d="M3562 3109 c4 -27 33 -48 47 -34 5 6 12 20 16 33 6 20 3 22 -30 22
-32 0 -36 -3 -33 -21z"/>
<path d="M4284 3119 c-10 -16 20 -41 40 -33 9 3 15 11 13 17 -5 16 -45 28 -53
16z"/>
<path d="M3640 3065 c-10 -12 -9 -16 4 -21 9 -3 23 -3 32 0 13 5 14 9 4 21 -7
8 -16 15 -20 15 -4 0 -13 -7 -20 -15z"/>
<path d="M3488 3048 c-8 -22 7 -63 24 -66 9 -2 22 7 29 19 10 19 8 25 -12 40
-29 22 -35 23 -41 7z"/>
<path d="M3642 2983 c4 -24 54 -41 71 -24 10 10 8 15 -7 27 -29 20 -68 19 -64
-3z"/>
<path d="M4341 2976 c-9 -11 -8 -15 5 -20 20 -8 39 7 30 23 -10 15 -21 14 -35
-3z"/>
<path d="M3575 2935 c-37 -30 -28 -39 30 -31 48 8 56 20 28 42 -23 17 -23 17
-58 -11z"/>
<path d="M4310 2896 c0 -8 7 -16 15 -20 22 -8 45 3 38 20 -7 18 -53 18 -53 0z"/>
<path d="M1958 3649 c-82 -22 -158 -137 -265 -403 -101 -252 -111 -428 -28
-506 23 -22 24 -22 452 -23 491 -1 462 -6 508 91 40 84 64 155 57 169 -4 6
-109 116 -233 245 -125 128 -258 268 -296 311 -96 108 -137 132 -195 116z m83
-52 c14 -12 86 -87 160 -167 74 -80 205 -217 292 -305 86 -88 157 -163 157
-166 0 -23 -75 -177 -93 -191 -19 -15 -64 -16 -435 -16 -407 1 -414 1 -438 22
-36 31 -45 100 -29 210 17 114 38 179 105 331 70 156 110 224 160 268 47 43
83 47 121 14z"/>
<path d="M2015 3530 c-8 -13 13 -40 31 -40 17 0 18 22 2 38 -15 15 -25 15 -33
2z"/>
<path d="M1950 3482 c0 -19 27 -38 39 -27 7 8 -12 38 -27 43 -7 2 -12 -5 -12
-16z"/>
<path d="M1886 3363 c-8 -19 17 -48 33 -39 17 11 13 34 -8 45 -15 8 -20 7 -25
-6z"/>
<path d="M1850 3312 c0 -19 27 -38 39 -27 7 8 -12 38 -27 43 -7 2 -12 -5 -12
-16z"/>
<path d="M1797 3253 c-12 -12 -7 -50 8 -63 22 -18 28 -7 21 35 -7 34 -15 42
-29 28z"/>
<path d="M1859 3178 c-1 -7 -2 -20 -3 -28 -1 -18 19 -28 57 -29 36 -1 34 11
-7 43 -39 29 -46 31 -47 14z"/>
<path d="M1796 3084 c-23 -22 -6 -39 29 -30 18 5 25 12 23 24 -4 23 -32 27
-52 6z"/>
<path d="M2410 3008 c1 -41 39 -74 55 -48 7 11 -12 51 -29 62 -19 13 -26 9
-26 -14z"/>
<path d="M2486 2995 c-3 -8 -1 -15 4 -15 5 0 7 -6 4 -14 -4 -11 5 -17 30 -21
57 -11 65 -2 26 33 -38 35 -55 40 -64 17z"/>
<path d="M1706 2991 c-10 -16 5 -61 20 -61 8 0 17 7 21 16 11 28 -27 69 -41
45z"/>
<path d="M2370 2921 c0 -15 6 -21 21 -21 14 0 19 5 17 17 -5 26 -38 29 -38 4z"/>
<path d="M2508 2868 c-12 -9 -15 -22 -11 -40 3 -16 8 -28 12 -28 26 1 55 52
39 68 -15 15 -20 15 -40 0z"/>
<path d="M2381 2861 l-24 -6 26 -30 c25 -29 27 -29 44 -12 13 13 15 21 7 34
-13 20 -22 23 -53 14z"/>
<path d="M1713 2853 c-15 -6 -17 -29 -3 -38 14 -9 50 13 50 30 0 15 -23 18
-47 8z"/>
<path d="M4940 2828 c-40 -72 -88 -147 -106 -167 -19 -19 -34 -42 -35 -51 0
-8 -3 -10 -5 -4 -3 7 27 75 65 153 38 77 66 143 62 146 -12 7 -19 -4 -105
-148 -41 -71 -85 -140 -96 -154 -25 -32 -27 -100 -4 -160 15 -38 20 -43 48
-43 39 0 103 32 125 62 9 12 32 63 52 113 20 49 53 128 72 174 20 47 33 89 30
94 -8 14 -17 1 -87 -140 -37 -73 -71 -135 -77 -139 -8 -4 -8 0 0 14 6 11 11
28 11 37 0 9 12 42 26 73 75 163 114 253 114 262 0 31 -26 -4 -90 -122z m-77
-208 c-2 -14 -13 -37 -25 -50 l-20 -25 6 34 c5 30 34 77 42 69 1 -2 0 -14 -3
-28z m-93 -76 c0 -54 -17 -94 -31 -73 -12 19 -11 86 2 110 16 30 29 13 29 -37z
m113 -33 c-6 -24 -51 -67 -80 -76 -13 -3 -23 -3 -23 0 0 20 38 66 64 79 40 20
45 20 39 -3z" fill="yellow"/>
<path d="M1085 2890 c-4 -6 -3 -16 3 -23 15 -19 127 -277 145 -332 15 -47 15
-49 -1 -26 -9 13 -45 78 -80 145 -69 131 -69 132 -78 123 -4 -4 27 -86 67
-184 88 -213 119 -253 194 -253 44 0 47 2 65 43 30 66 23 129 -19 179 -15 17
-82 127 -128 211 -20 37 -43 67 -50 67 -7 0 -13 -1 -13 -3 0 -2 32 -68 70
-146 39 -79 69 -146 66 -148 -2 -3 -12 9 -20 26 -9 16 -22 34 -29 38 -7 4 -50
72 -96 151 -46 78 -84 142 -86 142 -2 0 -7 -5 -10 -10z m193 -327 c14 -28 23
-73 14 -73 -11 0 -42 55 -42 74 0 21 17 20 28 -1z m103 -60 c6 -16 8 -48 4
-72 -6 -37 -9 -42 -20 -30 -22 21 -25 129 -5 129 6 0 15 -12 21 -27z m-109
-54 c27 -12 73 -72 59 -77 -19 -6 -71 29 -86 58 -16 32 -10 36 27 19z"/>
<path d="M5340 2683 c-97 -128 -97 -128 -152 -183 -27 -26 -48 -43 -48 -38 0
6 37 65 83 131 101 147 101 147 88 147 -5 0 -46 -44 -90 -97 -45 -54 -98 -118
-118 -142 -55 -64 -62 -80 -63 -136 -1 -40 -3 -46 -10 -27 -12 28 -29 28 -56
-1 -39 -42 -50 -90 -34 -154 13 -49 19 -58 44 -65 65 -17 146 25 182 94 14 27
13 27 -21 34 -19 3 -49 1 -66 -5 -18 -6 -34 -11 -35 -11 -2 0 -4 19 -3 43 1
40 1 41 11 15 9 -25 14 -28 57 -28 72 0 118 38 177 147 27 48 70 121 96 162
45 69 58 101 41 101 -5 -1 -33 -37 -63 -80 -89 -130 -134 -189 -138 -185 -3 2
3 16 12 29 9 14 16 31 16 37 0 7 41 74 90 150 85 129 101 159 82 159 -4 0 -41
-44 -82 -97z m-137 -241 c-11 -14 -24 -27 -30 -29 -17 -6 -4 32 20 58 28 30
36 6 10 -29z m-96 -74 c-5 -15 -15 -32 -23 -39 -22 -18 -19 79 4 111 l17 25 5
-35 c3 -19 2 -47 -3 -62z m112 -15 c-34 -44 -65 -63 -98 -63 -20 0 -20 2 6 31
29 33 55 47 87 48 16 1 17 -1 5 -16z m-209 -81 c0 -53 -26 -104 -41 -81 -13
22 -11 67 6 99 22 43 35 37 35 -18z m104 -83 c-28 -28 -96 -54 -108 -42 -13
14 79 72 114 73 l25 0 -31 -31z"/>
<path d="M3517 2734 c-21 -11 -41 -42 -73 -109 -24 -52 -44 -103 -44 -115 0
-14 73 -95 213 -238 118 -119 255 -262 306 -317 107 -115 133 -135 181 -135
79 0 159 94 247 294 82 184 118 303 129 421 8 87 -6 136 -49 183 l-31 32 -425
0 c-364 -1 -430 -3 -454 -16z m876 -23 c4 -1 16 -16 27 -33 44 -72 14 -272
-70 -468 -129 -302 -218 -400 -303 -333 -14 10 -68 66 -120 124 -52 57 -185
195 -295 307 l-200 203 24 56 c46 102 65 134 87 142 16 6 804 8 850 2z"/>
<path d="M3562 2663 c-21 -8 -35 -43 -22 -58 18 -22 50 -6 50 26 0 30 -8 39
-28 32z"/>
<path d="M3663 2663 c-17 -6 -17 -52 0 -59 7 -2 24 -1 36 4 l23 8 -23 26 c-13
14 -30 24 -36 21z"/>
<path d="M4343 2650 c-41 -17 -23 -45 20 -35 18 5 23 12 20 26 -6 21 -8 22
-40 9z"/>
<path d="M3677 2573 c-10 -9 12 -43 27 -43 8 0 13 7 12 16 -3 18 -30 37 -39
27z"/>
<path d="M4340 2515 c0 -29 37 -55 46 -31 7 19 -13 56 -31 56 -9 0 -15 -10
-15 -25z"/>
<path d="M3467 2519 c7 -7 15 -10 18 -7 3 3 -2 9 -12 12 -14 6 -15 5 -6 -5z"/>
<path d="M3515 2518 c8 -20 65 -61 73 -53 12 11 9 55 -4 55 -6 0 -26 3 -43 6
-25 5 -30 4 -26 -8z"/>
<path d="M3624 2493 c10 -40 32 -61 48 -45 16 16 -9 65 -36 70 -16 3 -18 0
-12 -25z"/>
<path d="M4246 2407 c-15 -11 -16 -15 -4 -25 20 -16 58 -4 58 19 0 22 -28 25
-54 6z"/>
<path d="M4150 2343 c0 -13 52 -53 69 -53 6 0 11 13 11 29 0 26 -3 29 -40 33
-27 2 -40 0 -40 -9z"/>
<path d="M4256 2258 c8 -42 20 -56 36 -40 16 16 -1 66 -25 70 -14 3 -16 -2
-11 -30z"/>
<path d="M4200 2176 c0 -7 7 -19 15 -26 12 -10 16 -9 21 3 3 9 3 21 -1 27 -9
15 -35 12 -35 -4z"/>
<path d="M4160 2130 c0 -24 26 -38 42 -22 8 8 8 15 -2 27 -18 21 -40 19 -40
-5z"/>
<path d="M4090 2011 c0 -12 29 -41 41 -41 16 0 10 38 -7 44 -22 9 -34 7 -34
-3z"/>
<path d="M4030 1965 c0 -14 2 -25 4 -25 2 0 11 -3 20 -6 19 -7 22 26 4 44 -19
19 -28 14 -28 -13z"/>
<path d="M696 2711 c-6 -9 15 -46 110 -193 41 -63 98 -178 89 -178 -3 0 -15
15 -27 34 -108 161 -178 249 -178 221 0 -11 94 -170 102 -173 4 -2 8 -7 8 -12
0 -21 85 -152 116 -179 29 -26 43 -31 88 -31 45 0 55 3 64 23 9 20 11 17 11
-21 1 -39 -1 -42 -18 -32 -25 13 -108 13 -116 0 -9 -14 86 -107 118 -115 42
-11 95 3 109 28 6 12 12 50 12 84 1 57 -1 64 -34 98 -38 39 -51 40 -61 4 -5
-18 -7 -12 -8 23 -1 62 -15 96 -54 134 -18 18 -42 45 -55 60 -89 114 -126 162
-138 179 -9 12 -17 16 -23 10 -5 -6 26 -61 80 -143 49 -73 89 -134 89 -137 0
-13 -100 97 -169 186 -44 57 -87 112 -95 122 -8 11 -16 14 -20 8z m253 -343
c8 -22 8 -28 -2 -25 -6 2 -11 10 -9 16 1 7 -2 10 -8 6 -9 -6 -30 33 -30 57 0
19 38 -23 49 -54z m101 -72 l-1 -51 -19 24 c-14 17 -20 38 -20 75 l1 51 19
-24 c14 -17 20 -38 20 -75z m-106 0 c40 -16 87 -76 61 -76 -23 0 -55 18 -87
48 -45 42 -35 53 26 28z m203 -77 c15 -28 17 -78 4 -98 -15 -23 -41 28 -41 82
0 53 15 60 37 16z m-104 -73 c18 -7 43 -25 56 -40 l24 -26 -31 0 c-21 0 -43
10 -67 31 -53 47 -45 62 18 35z" fill="yellow"/>
<path d="M1649 2663 c-108 -45 -87 -219 67 -542 97 -203 212 -335 299 -342 66
-5 76 0 158 89 45 48 172 178 283 289 111 111 209 218 218 237 23 48 19 64
-49 213 -21 44 -29 53 -57 57 -18 3 -226 7 -462 8 -315 2 -436 0 -457 -9z
m617 -33 l313 0 25 -56 c36 -79 50 -128 42 -157 -3 -13 -103 -122 -224 -243
-119 -121 -248 -252 -285 -291 -58 -62 -73 -73 -101 -73 -88 0 -218 160 -317
390 -63 147 -99 264 -101 328 -3 103 18 114 201 107 74 -3 275 -5 447 -5z"/>
<path d="M1724 2574 c3 -9 6 -17 6 -18 0 -2 11 -1 25 2 37 7 32 32 -6 32 -24
0 -30 -3 -25 -16z"/>
<path d="M2437 2558 c-8 -5 -4 -14 11 -28 l23 -22 34 27 c19 14 35 28 35 31 0
7 -90 0 -103 -8z"/>
<path d="M1705 2510 c-15 -24 17 -38 45 -20 13 9 13 11 0 20 -19 13 -37 13
-45 0z"/>
<path d="M2367 2513 c-10 -15 8 -32 40 -39 32 -6 53 10 36 27 -13 13 -70 22
-76 12z"/>
<path d="M2550 2481 c0 -5 -2 -16 -6 -24 -3 -8 6 -21 21 -31 22 -15 26 -15 31
-1 11 27 -5 65 -26 65 -11 0 -20 -4 -20 -9z"/>
<path d="M2404 2419 c-3 -6 -1 -15 7 -19 16 -10 52 7 44 21 -8 13 -42 11 -51
-2z"/>
<path d="M2466 2378 c-3 -13 -7 -25 -8 -27 -2 -2 12 -5 30 -6 37 -3 52 16 32
40 -18 22 -47 18 -54 -7z"/>
<path d="M1750 2375 c0 -18 41 -37 54 -25 5 5 6 16 3 24 -8 21 -57 21 -57 1z"/>
<path d="M1762 2321 c-18 -11 10 -34 32 -25 20 8 21 20 0 28 -19 7 -16 7 -32
-3z"/>
<path d="M1920 2240 c-7 -5 -19 -6 -26 -3 -21 8 -27 -17 -9 -37 17 -18 18 -18
51 3 19 12 34 25 34 28 0 11 -37 17 -50 9z"/>
<path d="M1770 2225 c0 -22 46 -48 66 -37 14 8 12 12 -14 31 -35 25 -52 27
-52 6z"/>
<path d="M1896 2125 c-13 -20 -13 -25 -1 -35 18 -15 45 3 45 30 0 28 -27 31
-44 5z"/>
<path d="M1907 1993 c-14 -13 -6 -28 19 -40 20 -9 26 -9 31 3 10 26 -31 57
-50 37z"/>
<path d="M2009 1899 c-9 -17 -8 -23 2 -30 20 -12 26 -11 33 7 17 44 -13 63
-35 23z"/>
<path d="M4635 2452 c-29 -43 -31 -80 -9 -146 20 -57 47 -71 104 -56 50 13 83
41 109 90 12 22 21 43 21 45 0 11 -73 4 -105 -9 -35 -15 -35 -15 -35 10 0 33
-27 91 -46 98 -8 3 -23 -9 -39 -32z m54 -77 c0 -16 -6 -41 -14 -55 -13 -24
-14 -24 -22 -5 -13 33 -9 101 7 120 14 17 15 16 21 -6 4 -13 7 -37 8 -54z
m122 -22 c-22 -38 -39 -53 -75 -68 -25 -11 -36 -12 -36 -4 0 18 67 77 92 82
13 2 24 5 26 6 1 0 -2 -7 -7 -16z"/>
<path d="M1416 2390 c-9 -22 -16 -52 -16 -65 0 -29 -5 -30 -40 -10 -14 8 -42
14 -63 15 -35 0 -38 -2 -32 -22 26 -85 138 -156 191 -120 14 9 39 59 48 95 8
35 -10 106 -30 114 -7 3 -14 11 -14 19 0 29 -29 12 -44 -26z m48 -26 c8 -21 8
-109 -1 -117 -3 -4 -12 -2 -20 4 -21 18 -16 129 7 129 4 0 11 -7 14 -16z m-98
-86 c58 -45 70 -74 27 -63 -34 8 -55 24 -47 36 3 5 0 8 -6 7 -6 -2 -19 7 -27
20 -14 20 -14 22 4 22 11 0 33 -10 49 -22z"/>
<path d="M2803 2387 c-12 -7 -93 -82 -181 -167 -154 -151 -217 -209 -390 -360
-120 -105 -137 -152 -83 -227 35 -49 92 -86 242 -157 322 -154 583 -189 655
-88 19 26 20 45 18 432 -1 223 -3 413 -3 422 -2 28 -50 77 -99 99 -115 51
-137 57 -159 46z m113 -66 c60 -26 93 -46 101 -62 9 -18 12 -122 12 -392 0
-202 3 -372 6 -377 3 -5 3 -26 -1 -46 -10 -55 -49 -74 -154 -74 -101 0 -229
31 -365 90 -269 115 -355 173 -355 241 0 45 6 53 128 160 116 102 232 212 427
401 55 54 103 98 106 98 3 0 46 -17 95 -39z"/>
<path d="M2818 2279 c-10 -6 -18 -16 -18 -23 0 -8 -7 -16 -15 -20 -28 -10 -17
-36 15 -36 25 0 30 4 36 34 8 46 4 57 -18 45z"/>
<path d="M2907 2254 c-3 -3 -1 -17 6 -31 9 -20 16 -23 36 -18 36 9 37 12 16
35 -18 19 -45 26 -58 14z"/>
<path d="M2790 2168 c-36 -13 -55 -48 -25 -48 24 0 65 22 65 36 0 19 -12 23
-40 12z"/>
<path d="M2921 2136 c-6 -7 -7 -24 -3 -38 l7 -26 30 24 c23 18 27 26 17 36
-17 17 -39 18 -51 4z"/>
<path d="M2858 2116 c-24 -18 -23 -36 2 -36 15 0 20 7 20 25 0 29 1 29 -22 11z"/>
<path d="M2252 1768 c-16 -16 -15 -38 1 -38 7 0 18 5 25 12 7 7 12 18 12 25 0
16 -22 17 -38 1z"/>
<path d="M2292 1698 c-17 -17 -15 -38 3 -38 16 0 38 34 28 44 -9 9 -18 7 -31
-6z"/>
<path d="M2640 1647 c-17 -14 -40 -52 -40 -66 0 -5 12 -8 28 -7 24 3 28 8 33
45 6 44 3 48 -21 28z"/>
<path d="M2416 1634 c-13 -12 -14 -20 -6 -28 13 -13 45 4 45 24 0 21 -21 23
-39 4z"/>
<path d="M2466 1594 c-12 -12 -14 -20 -7 -27 8 -8 16 -6 28 6 12 12 14 20 6
28 -7 7 -15 5 -27 -7z"/>
<path d="M2693 1559 c-16 -16 -3 -59 18 -59 19 0 25 23 13 54 -7 19 -16 20
-31 5z"/>
<path d="M2542 1543 c-35 -7 -20 -28 19 -28 24 0 35 5 37 18 4 17 -7 19 -56
10z"/>
<path d="M2932 1477 c-17 -20 -3 -57 20 -57 17 0 19 4 13 28 -9 36 -19 46 -33
29z"/>
<path d="M2802 1458 c-21 -21 -15 -41 11 -34 12 3 25 6 30 6 4 0 7 9 7 20 0
23 -29 27 -48 8z"/>
<path d="M3275 2374 c-22 -7 -47 -18 -55 -23 -9 -4 -30 -12 -47 -15 -17 -4
-36 -13 -42 -20 -8 -9 -12 -164 -15 -476 l-4 -463 33 -36 34 -36 83 1 c91 1
126 11 324 91 231 95 402 220 426 314 13 51 7 86 -19 115 -10 11 -85 81 -168
156 -82 75 -204 190 -270 257 -153 155 -184 169 -280 135z m118 -33 c15 -10
101 -89 190 -177 197 -193 278 -269 335 -313 92 -71 91 -124 -2 -216 -95 -95
-252 -178 -493 -261 -132 -45 -213 -48 -251 -11 l-25 26 4 183 c2 101 3 303 1
451 -3 251 -3 267 15 273 10 4 50 19 88 34 84 34 101 35 138 11z"/>
<path d="M3318 2303 c-25 -6 -22 -40 3 -48 14 -5 25 -1 34 12 24 31 6 48 -37
36z"/>
<path d="M3215 2241 c-8 -14 3 -89 15 -96 10 -6 40 22 40 38 -1 21 -47 70 -55
58z"/>
<path d="M3397 2222 c-23 -25 -22 -29 12 -46 l29 -15 4 34 c3 23 -1 36 -10 40
-18 7 -17 7 -35 -13z"/>
<path d="M3271 2130 c-10 -31 -6 -60 10 -60 5 0 16 17 24 37 12 29 13 38 3 45
-21 13 -25 10 -37 -22z"/>
<path d="M3357 2147 c-3 -8 -1 -20 4 -28 11 -19 34 3 26 25 -8 20 -23 21 -30
3z"/>
<path d="M3877 1751 c-3 -14 2 -21 20 -26 45 -11 59 15 18 33 -33 15 -32 15
-38 -7z"/>
<path d="M3550 1671 c0 -35 12 -81 22 -81 5 0 16 7 25 15 13 14 12 19 -12 50
-30 40 -35 42 -35 16z"/>
<path d="M3811 1667 c-6 -6 -11 -22 -11 -35 0 -18 4 -23 16 -18 9 3 18 6 20 6
3 0 3 4 -1 9 -3 5 -1 12 5 16 5 3 10 10 10 15 0 14 -27 19 -39 7z"/>
<path d="M3650 1642 c0 -9 9 -23 19 -29 16 -10 22 -9 32 3 10 12 8 17 -7 29
-26 20 -44 19 -44 -3z"/>
<path d="M3566 1535 c-21 -32 -20 -45 2 -45 20 0 46 45 37 61 -10 15 -22 10
-39 -16z"/>
<path d="M3410 1515 c-14 -17 -5 -48 13 -43 14 5 23 58 9 58 -5 0 -15 -7 -22
-15z"/>
<path d="M3466 1515 c-6 -17 2 -45 14 -45 12 0 20 28 14 45 -4 8 -10 15 -14
15 -4 0 -10 -7 -14 -15z"/>
<path d="M3195 1480 c-8 -27 10 -49 26 -33 13 13 8 45 -8 50 -6 2 -14 -6 -18
-17z"/>
<path d="M3270 1456 c0 -29 19 -44 30 -25 9 14 -5 49 -20 49 -6 0 -10 -11 -10
-24z"/>
<path d="M5600 2279 c-63 -55 -136 -111 -162 -124 -25 -13 -48 -30 -51 -37 -3
-8 -6 -9 -6 -2 -1 7 48 58 107 115 59 57 111 109 115 116 17 28 -27 2 -99 -57
-43 -36 -107 -87 -143 -113 -76 -56 -91 -75 -107 -137 -7 -25 -13 -35 -13 -23
-1 33 -18 37 -55 14 -39 -25 -66 -82 -66 -141 0 -65 50 -100 125 -86 35 7 115
61 122 83 6 16 -72 36 -110 29 -24 -5 -28 -3 -23 10 3 9 6 28 7 42 l1 27 11
-27 c12 -31 25 -37 82 -40 38 -1 119 31 127 50 1 5 47 56 100 113 113 122 142
158 134 166 -6 6 -41 -23 -142 -116 -33 -31 -73 -67 -89 -81 l-28 -25 31 43
c17 24 81 95 141 159 61 64 111 122 111 129 0 8 -1 14 -2 14 -2 -1 -55 -46
-118 -101z m-259 -206 c-6 -22 -22 -50 -36 -63 l-25 -23 0 22 c0 31 27 94 48
109 22 17 26 3 13 -45z m118 40 c-17 -23 -52 -52 -62 -53 -11 0 21 57 35 63 7
3 19 6 27 6 11 1 11 -2 0 -16z m91 -27 c0 -2 -8 -10 -17 -17 -16 -13 -17 -12
-4 4 13 16 21 21 21 13z m-40 -40 c0 -2 -8 -10 -17 -17 -16 -13 -17 -12 -4 4
13 16 21 21 21 13z m-70 -35 c0 -12 -48 -46 -76 -55 -12 -4 -29 -4 -38 0 -14
5 -14 9 -4 22 26 30 118 56 118 33z m-225 -38 c-11 -65 -65 -122 -65 -69 0 32
14 69 35 89 27 27 36 20 30 -20z m94 -100 c-21 -25 -76 -44 -105 -37 -14 4
-22 10 -17 15 20 19 71 39 102 39 30 0 32 -2 20 -17z" fill="yellow"/>
<path d="M4567 2300 c-15 -17 -28 -41 -29 -53 -3 -53 3 -95 18 -129 16 -36 20
-38 62 -38 59 0 114 32 142 82 19 33 20 42 9 49 -20 12 -41 11 -87 -5 -44 -16
-51 -11 -52 37 -1 12 -9 37 -19 55 l-18 34 -26 -32z m31 -27 c-1 -5 2 -23 6
-41 8 -35 -8 -92 -26 -92 -6 0 -8 15 -6 34 2 19 0 32 -4 30 -11 -7 -10 7 3 45
6 17 15 31 20 31 5 0 8 -3 7 -7z m132 -102 c-21 -40 -110 -82 -110 -53 0 21
73 71 103 72 14 0 16 -4 7 -19z"/>
<path d="M400 2302 c0 -4 38 -45 85 -91 47 -46 85 -87 85 -92 0 -5 7 -9 15 -9
8 0 15 -7 15 -15 0 -7 6 -18 13 -22 7 -4 20 -20 29 -34 9 -14 25 -34 35 -44
10 -10 13 -16 7 -14 -6 2 -62 52 -124 112 -63 59 -117 107 -122 107 -18 0 -6
-23 32 -60 22 -22 40 -44 40 -50 0 -5 7 -10 16 -10 8 0 13 -4 10 -9 -4 -5 -3
-11 2 -13 4 -1 25 -24 46 -50 21 -26 42 -45 47 -42 5 3 9 -1 9 -8 0 -24 78
-87 115 -94 37 -7 82 1 102 18 24 20 16 107 -14 154 -16 24 -32 44 -36 44 -12
0 -70 43 -85 63 -7 9 -17 17 -22 17 -5 0 -24 15 -42 33 -41 40 -123 107 -132
107 -20 0 7 -33 112 -135 111 -109 114 -113 62 -83 -30 18 -71 47 -90 64 -176
158 -210 183 -210 156z m305 -258 c23 -24 32 -44 21 -44 -18 0 -39 17 -52 41
-19 37 -2 38 31 3z m104 -8 c27 -28 42 -110 20 -101 -20 8 -37 38 -48 85 -10
46 -4 50 28 16z m-27 -98 c9 -1 15 -4 13 -7 -3 -2 2 -13 12 -23 15 -17 15 -18
-10 -18 -33 0 -65 13 -97 40 l-25 21 45 -6 c25 -3 53 -6 62 -7z"/>
<path d="M1501 2234 c-6 -15 -14 -46 -18 -69 -5 -42 -6 -42 -32 -29 -30 16
-111 19 -111 4 0 -20 44 -77 75 -99 22 -14 47 -21 82 -21 48 0 50 1 66 38 33
78 30 136 -11 169 -11 9 -11 12 -2 7 13 -7 13 -5 1 9 -19 24 -36 21 -50 -9z
m49 -59 c9 -27 9 -44 -1 -72 l-12 -36 -13 24 c-21 37 -16 119 6 119 5 0 14
-16 20 -35z m-64 -103 c29 -33 15 -40 -37 -17 -38 17 -74 57 -62 68 10 11 75
-23 99 -51z"/>
<path d="M4882 2195 c-12 -9 -29 -29 -37 -45 -26 -50 -15 -161 18 -182 20 -13
96 -9 127 7 34 18 91 85 83 98 -3 5 -36 7 -74 5 l-69 -5 0 51 c0 29 -6 60 -13
69 -11 16 -14 16 -35 2z m22 -60 c10 -41 -11 -105 -35 -105 -14 0 -11 88 3
110 17 26 25 25 32 -5z m126 -85 c0 -17 -74 -60 -103 -60 -40 0 -30 20 23 48
47 23 80 29 80 12z"/>
<path d="M4460 2150 c-12 -16 -24 -45 -27 -63 -6 -42 13 -113 38 -138 32 -32
122 -21 160 19 35 38 52 73 41 84 -10 10 -78 7 -119 -7 -21 -7 -23 -4 -23 24
0 34 -28 111 -40 111 -5 0 -18 -13 -30 -30z m42 -85 c0 -44 -11 -77 -23 -69
-6 3 -8 13 -5 21 3 8 1 11 -4 8 -14 -9 -13 61 1 87 11 20 12 20 21 4 6 -10 10
-33 10 -51z m106 -70 c-35 -33 -88 -48 -88 -26 0 20 62 61 93 61 l32 -1 -37
-34z"/>
<path d="M1199 2123 c-6 -16 -11 -49 -12 -74 -2 -45 -3 -46 -25 -38 -28 11
-79 11 -107 0 -17 -7 -15 -12 26 -55 38 -41 52 -49 91 -53 72 -8 93 1 106 45
23 77 12 135 -34 177 -15 14 -29 25 -31 25 -2 0 -8 -12 -14 -27z m61 -114 c0
-28 -5 -49 -11 -49 -19 0 -41 71 -34 109 l7 36 19 -24 c13 -16 19 -39 19 -72z
m-73 -45 c23 -17 31 -30 25 -36 -15 -15 -74 7 -102 37 l-23 25 33 0 c20 0 46
-10 67 -26z" fill="yellow"/>
<path d="M1613 2098 c-24 -52 -30 -74 -27 -100 3 -32 -1 -33 -36 -13 -28 16
-106 20 -114 6 -9 -13 36 -73 73 -98 23 -16 48 -23 80 -23 57 0 66 6 86 53 26
62 18 130 -22 176 -22 26 -27 26 -40 -1z m44 -111 c-6 -74 -25 -79 -37 -10 -3
21 -2 51 3 67 10 28 11 28 24 10 10 -13 13 -35 10 -67z m-86 -49 l44 -33 -28
-3 c-30 -4 -107 39 -107 58 0 21 49 9 91 -22z"/>
<path d="M4741 2045 c-31 -35 -36 -57 -31 -125 4 -56 17 -79 51 -88 l32 -8
-46 -11 -47 -10 0 46 c-1 25 -6 58 -13 73 -11 26 -13 26 -32 10 -41 -34 -55
-65 -55 -122 0 -60 0 -61 -87 -177 -37 -50 -51 -77 -46 -87 6 -11 18 -5 54 27
117 107 141 125 159 120 34 -9 88 17 132 65 34 38 39 47 25 50 -25 5 -21 22 7
22 23 0 116 73 116 90 0 26 -109 32 -137 8 -10 -8 -13 -1 -13 33 0 51 -17 119
-29 119 -5 0 -23 -16 -40 -35z m39 -62 c0 -32 -7 -56 -20 -73 l-20 -25 -1 35
c-2 48 1 72 12 93 17 31 29 18 29 -30z m129 -80 c-21 -24 -102 -58 -107 -44
-2 6 -9 8 -15 4 -7 -4 -5 1 3 12 19 23 67 44 104 45 25 0 27 -2 15 -17z m-239
-48 c0 -45 -17 -95 -32 -95 -13 0 -9 98 4 120 20 31 28 24 28 -25z m110 -90
c-24 -26 -95 -53 -107 -42 -8 9 26 47 52 58 11 4 33 8 49 8 l29 1 -23 -25z
m-179 -78 c-13 -12 -20 -15 -16 -7 14 26 28 41 33 35 3 -3 -5 -16 -17 -28z"/>
<path d="M4371 2003 c-30 -37 -36 -69 -24 -125 9 -48 9 -50 -48 -155 -37 -68
-56 -111 -51 -120 9 -15 28 4 117 114 36 46 57 63 74 63 41 0 109 47 131 90
11 22 20 42 20 46 0 7 -97 0 -125 -10 -18 -6 -21 -3 -23 24 -3 40 -28 100 -41
100 -5 0 -19 -12 -30 -27z m42 -62 c7 -33 -10 -104 -23 -96 -14 9 -22 80 -11
109 13 32 26 28 34 -13z m137 -49 c0 -16 -66 -71 -92 -77 -32 -8 -35 1 -12 33
22 32 104 66 104 44z m-180 -122 c-6 -12 -14 -19 -17 -17 -2 3 1 15 7 27 6 12
14 19 17 17 2 -3 -1 -15 -7 -27z"/>
<path d="M1321 1988 c-6 -17 -11 -53 -11 -80 0 -45 -1 -48 -19 -38 -25 13
-101 13 -121 0 -12 -8 -9 -16 22 -47 21 -20 57 -45 80 -55 32 -12 37 -17 20
-17 -20 -1 -21 -4 -12 -22 32 -59 95 -99 156 -99 37 0 44 -5 200 -142 18 -16
22 -17 27 -5 3 9 -24 53 -66 108 -50 65 -72 103 -73 124 -1 16 -2 45 -3 63 -1
22 -12 44 -35 70 -44 47 -59 36 -64 -52 l-4 -64 -40 16 -39 15 30 13 c24 10
31 21 38 56 15 74 -10 153 -56 178 -16 8 -21 5 -30 -22z m45 -35 c7 -10 14
-43 14 -73 0 -51 -1 -53 -17 -38 -17 17 -32 128 -18 128 4 0 14 -8 21 -17z
m-60 -124 c40 -25 43 -39 9 -39 -30 0 -76 22 -94 44 -12 14 -9 16 19 16 18 0
48 -9 66 -21z m179 -29 c12 -24 14 -41 7 -73 l-8 -42 -17 32 c-18 34 -23 113
-7 113 5 0 17 -14 25 -30z m-86 -89 c20 -11 43 -27 50 -35 12 -14 9 -16 -18
-16 -34 0 -60 11 -92 38 -42 36 -2 44 60 13z m139 -89 c20 -30 11 -28 -19 4
-13 15 -18 25 -10 22 8 -2 21 -14 29 -26z"/>
<path d="M883 1975 c-3 -9 -3 -40 -1 -70 l5 -55 -41 0 c-96 0 -109 -24 -40
-73 51 -36 107 -44 157 -24 36 15 37 18 37 66 0 27 -5 62 -11 78 -15 40 -58
83 -77 76 -10 -4 -13 -2 -8 5 4 7 2 12 -4 12 -6 0 -13 -7 -17 -15z m69 -69
c14 -27 28 -96 18 -96 -21 0 -53 53 -58 97 -5 44 -4 47 12 34 9 -8 22 -24 28
-35z m-32 -108 l35 -23 -34 -3 c-36 -4 -84 12 -102 34 -20 24 61 17 101 -8z"/>
<path d="M1699 1943 c-6 -15 -14 -47 -16 -70 -3 -24 -7 -43 -8 -43 -2 0 -16 7
-31 15 -37 19 -114 20 -114 2 0 -20 68 -95 101 -112 15 -8 39 -15 53 -15 19 0
42 -20 96 -84 77 -93 85 -100 100 -91 7 4 -1 27 -21 62 -88 157 -88 157 -82
217 7 64 -8 108 -43 131 -23 15 -25 15 -35 -12z m48 -106 c-7 -75 -25 -79 -34
-8 -3 22 -2 52 2 68 6 27 7 27 22 8 10 -14 13 -35 10 -68z m-92 -35 c11 -10
27 -26 35 -36 14 -18 13 -19 -20 -12 -35 6 -103 63 -94 77 6 10 54 -7 79 -29z
m120 -102 l20 -25 -22 19 c-13 11 -23 24 -23 29 0 6 1 8 3 6 1 -2 11 -15 22
-29z"/>
<path d="M5041 1891 c-39 -36 -51 -69 -51 -136 0 -50 2 -53 34 -69 19 -9 48
-16 65 -16 37 0 98 29 125 59 19 21 19 22 0 36 -11 8 -41 15 -70 15 l-51 0 10
44 c11 50 3 96 -17 96 -8 0 -28 -13 -45 -29z m39 -37 c0 -33 -27 -91 -46 -98
-22 -8 -18 53 6 92 24 39 40 41 40 6z m90 -124 c-30 -23 -80 -35 -110 -25 -22
7 -22 7 6 26 19 12 47 19 79 19 l50 0 -25 -20z"/>
<path d="M1022 1787 l5 -73 -32 4 c-17 2 -49 -4 -71 -13 l-39 -17 39 -34 c21
-18 54 -37 73 -40 44 -8 103 1 121 20 20 19 18 115 -2 154 -13 25 -74 72 -93
72 -3 0 -4 -33 -1 -73z m62 -1 c20 -31 33 -106 18 -106 -18 0 -49 52 -55 93
-7 44 12 51 37 13z m-44 -112 c22 -9 40 -20 40 -24 0 -19 -51 -19 -95 0 -79
34 -27 57 55 24z"/>
<path d="M4912 1803 c-53 -26 -85 -118 -66 -190 9 -34 94 -59 145 -44 38 12
99 55 99 72 0 13 -79 31 -117 27 -27 -3 -32 -1 -27 11 11 27 17 128 7 134 -5
3 -23 -1 -41 -10z m1 -115 c-24 -41 -43 -47 -43 -14 0 35 18 79 38 94 15 12
17 10 20 -18 2 -17 -5 -45 -15 -62z m127 -57 c0 -16 -81 -42 -111 -36 -36 8
-37 20 -1 33 34 13 112 15 112 3z"/>
<path d="M1166 1744 c-10 -25 -7 -59 9 -103 l14 -41 -37 6 c-40 6 -112 -16
-112 -35 0 -20 80 -63 127 -69 42 -5 44 -6 23 -14 l-25 -10 40 -33 c44 -38
112 -57 154 -45 22 6 45 -3 130 -51 57 -33 107 -59 112 -59 15 0 10 20 -11 42
-11 12 -20 19 -20 17 0 -3 -34 26 -75 64 -54 50 -75 77 -75 95 0 40 -31 92
-69 117 -20 12 -39 21 -43 18 -11 -6 -10 -87 1 -116 9 -24 9 -25 -40 -25 l-50
0 30 19 c29 17 31 23 31 77 0 68 -25 114 -76 144 -29 17 -32 17 -38 2z m65
-65 c23 -32 35 -103 17 -97 -18 6 -46 57 -53 96 -7 39 9 40 36 1z m139 -111
c11 -18 20 -48 20 -67 0 -32 -1 -33 -18 -18 -10 10 -21 15 -23 12 -3 -2 -6 4
-7 13 -1 9 -4 34 -8 55 -8 47 9 49 36 5z m-174 -3 c42 -17 36 -35 -12 -35 -40
0 -98 26 -89 40 9 15 61 12 101 -5z m139 -110 c37 -23 38 -24 15 -26 -62 -3
-136 22 -124 43 10 16 70 7 109 -17z m116 -41 l24 -27 -27 18 c-16 9 -28 21
-28 26 0 14 5 11 31 -17z" fill="yellow"/>
<path d="M4780 1692 c-39 -21 -70 -72 -70 -115 0 -28 -45 -76 -165 -180 -20
-17 -27 -29 -20 -36 7 -7 42 8 112 49 87 51 106 58 136 53 55 -8 104 5 142 39
19 16 35 34 35 39 0 12 -79 31 -112 27 -27 -4 -28 -4 -22 31 11 59 11 65 5 89
-6 22 -6 22 -41 4z m15 -58 c-9 -49 -25 -82 -43 -89 -12 -4 -14 3 -10 40 5 44
30 85 51 85 5 0 6 -15 2 -36z m105 -103 c0 -14 -65 -41 -99 -41 -38 0 -40 15
-3 34 29 17 102 21 102 7z m-206 -56 c-10 -8 -23 -14 -29 -14 -5 -1 1 8 15 19
14 10 27 17 29 14 3 -2 -4 -11 -15 -19z" fill="#FFBE2E"/>
<path d="M2373 1170 c-204 -43 -345 -140 -460 -316 -84 -129 -109 -197 -158
-422 -5 -20 -11 -22 -68 -22 -34 0 -67 -4 -73 -8 -14 -9 -34 -121 -23 -128 5
-3 219 -5 476 -5 258 0 628 -2 823 -5 l356 -5 21 52 22 51 28 -21 c99 -77 150
-93 226 -72 36 10 54 10 104 -3 85 -22 207 -21 284 4 62 19 63 19 120 0 32
-11 82 -20 111 -20 54 0 154 22 169 37 5 5 21 63 35 128 14 66 32 130 40 142
15 25 44 29 74 13 17 -9 19 -22 18 -113 0 -60 6 -120 14 -147 l14 -45 143 -3
c113 -2 146 0 155 11 8 11 33 13 109 9 93 -4 97 -5 97 -27 0 -49 -8 -55 -74
-55 -50 0 -63 4 -74 20 -17 27 -48 25 -78 -5 l-25 -25 23 -43 23 -42 167 -3
c182 -3 170 -7 182 58 12 70 103 504 112 533 5 16 -8 17 -178 17 l-183 0 -44
-67 c-31 -47 -49 -91 -65 -153 l-21 -87 -67 0 -68 0 0 106 c0 86 -4 112 -19
137 -36 59 -117 79 -201 49 -52 -18 -50 -18 -50 0 0 12 -15 15 -73 15 l-73 0
-33 -137 -33 -138 -59 3 c-69 4 -65 -9 -45 155 7 59 10 110 7 112 -2 3 -35 5
-72 5 l-68 0 -10 -37 c-50 -195 -63 -238 -79 -249 -22 -17 -53 -17 -76 -1 -18
13 -18 19 -1 138 9 68 17 128 18 134 1 5 -26 11 -59 13 l-62 4 -32 -103 c-17
-56 -42 -125 -55 -154 l-23 -53 -46 9 c-114 21 -130 54 -68 146 20 31 42 63
47 72 6 9 12 18 15 21 9 8 40 59 40 65 0 3 -33 5 -72 5 l-72 0 -39 -43 c-33
-36 -38 -39 -33 -17 19 83 47 232 44 235 -1 2 -30 5 -63 6 l-60 3 -17 -50 c-9
-27 -43 -138 -75 -246 l-58 -198 -94 0 c-92 0 -93 0 -88 22 2 13 21 86 42 163
59 226 76 297 72 302 -3 2 -36 6 -75 7 l-70 4 -35 -112 c-19 -61 -54 -172 -78
-247 l-42 -136 -44 0 c-24 -1 -45 2 -48 6 -2 4 7 48 19 97 13 49 36 141 50
204 15 63 31 130 36 148 11 41 4 44 -80 40 l-62 -3 -82 -245 -82 -245 -68 -3
c-61 -3 -67 -1 -62 15 10 35 66 250 66 257 0 3 -30 6 -68 6 l-67 0 -47 -137
-46 -138 -102 -3 -103 -3 7 43 c11 65 53 184 96 273 76 154 176 248 295 280
90 24 256 19 368 -11 48 -13 92 -24 97 -24 9 0 70 95 70 109 0 12 -103 57
-175 76 -69 19 -271 28 -332 15z m2711 -609 c36 -39 10 -140 -37 -149 -29 -6
-57 34 -57 83 0 72 54 110 94 66z" fill="#262217"/>
<path d="M1360 849 c-30 -46 -33 -60 -34 -125 l-1 -74 -37 0 c-34 0 -38 3 -48
38 -14 45 -26 61 -66 90 -33 23 -144 56 -169 50 -10 -2 7 -34 53 -103 82 -122
88 -156 29 -186 -38 -20 -77 -80 -77 -119 0 -17 -6 -20 -42 -20 l-43 0 -1 68
c0 70 -18 116 -67 176 l-24 29 -36 -48 c-41 -54 -51 -92 -45 -170 4 -52 3 -55
-18 -55 -40 0 -56 12 -76 59 -23 55 -41 76 -82 96 -35 18 -146 48 -152 42 -3
-2 12 -26 33 -53 103 -132 114 -152 120 -224 l6 -68 256 -1 256 -2 1 59 c2 64
18 103 59 145 l28 27 233 0 233 0 21 73 c24 79 66 160 115 222 50 62 51 66 13
58 -56 -10 -153 -59 -176 -87 -12 -16 -27 -43 -34 -62 -11 -32 -15 -34 -59
-34 -44 0 -46 1 -41 25 9 48 -9 114 -46 169 -20 31 -39 56 -42 56 -4 0 -22
-23 -40 -51z" fill="#262217"/>
<path d="M2282 804 c-12 -8 -22 -24 -22 -34 0 -46 93 -67 130 -30 25 25 25 34
-2 60 -26 24 -75 26 -106 4z"/>
<path d="M5381 736 c-28 -15 -39 -38 -40 -78 -1 -34 23 -58 59 -58 16 0 32 -4
35 -10 8 -13 -37 -23 -85 -18 -38 3 -40 2 -40 -24 l0 -28 95 0 95 0 20 33 c37
60 19 97 -49 97 -35 0 -47 13 -26 30 10 8 32 11 60 8 46 -6 55 1 55 43 0 17
-8 19 -77 19 -46 -1 -88 -6 -102 -14z" fill="#FFBE2E"/>
<path d="M250 216 l0 -123 50 -6 c28 -3 57 -4 64 -1 21 8 45 64 40 93 -6 37
-51 74 -80 67 -23 -6 -24 -4 -24 44 0 47 -2 50 -25 50 l-25 0 0 -124z m99 -35
c14 -24 -8 -55 -32 -45 -17 6 -24 44 -10 57 12 13 32 7 42 -12z"/>
<path d="M5747 333 c-3 -4 -2 -61 0 -125 6 -114 7 -118 28 -118 19 0 23 5 21
29 -1 17 2 27 8 24 5 -4 7 1 3 10 -11 30 7 18 36 -23 22 -31 35 -40 57 -40 44
0 44 14 1 53 -22 20 -37 38 -34 41 3 3 -2 8 -11 12 -28 11 -18 34 34 83 28 26
47 50 44 54 -17 17 -57 4 -93 -29 l-40 -35 -3 33 c-2 25 -8 34 -25 36 -11 2
-23 0 -26 -5z" />
<path d="M40 210 l0 -120 25 0 c20 0 25 6 31 34 l6 34 30 -34 c24 -27 38 -34
65 -34 30 0 34 2 23 15 -7 8 -17 12 -23 8 -5 -3 -7 -2 -4 4 3 5 -11 29 -32 53
l-37 43 53 53 c29 30 53 55 53 57 0 1 -17 2 -37 1 -28 -1 -43 -9 -65 -33 -34
-38 -42 -39 -36 -6 3 14 1 25 -4 25 -5 0 -6 5 -3 10 4 6 -5 10 -19 10 l-26 0
0 -120z" />
<path d="M6033 225 l-20 -37 -13 31 c-10 26 -18 31 -47 31 -34 0 -35 -1 -21
-22 8 -13 24 -39 36 -60 l23 -36 -31 -52 c-16 -28 -30 -53 -30 -55 0 -3 13 -5
29 -5 25 0 34 8 61 56 17 31 32 65 33 75 1 10 7 21 15 24 8 3 11 12 8 20 -3 8
-1 15 4 15 5 0 14 10 21 21 8 15 8 19 0 15 -6 -4 -11 -1 -11 6 0 9 -3 9 -10
-2 -8 -13 -11 -13 -19 -1 -7 11 -14 5 -28 -24z" fill="#FFBE2E"/>
</g>
</svg>
